<?xml version="1.0" encoding="UTF-8"?>
<svg id="Ebene_3" xmlns="http://www.w3.org/2000/svg" version="1.1" viewBox="0 0 1607.2 326.7">
  <!-- Generator: Adobe Illustrator 29.7.0, SVG Export Plug-In . SVG Version: 2.1.1 Build 138)  -->
  <defs>
    <style>
      .st0 {
        fill: #fff;
      }

      .st1 {
        fill: none;
      }

      .st2 {
        fill: #5a4fcf;
      }
    </style>
  </defs>
  <rect class="st1" x="-15.5" y="-3.9" width="1638.1" height="334.5"/>
  <path class="st0" d="M267.8,136.4c65.2,0,100.4,24.4,100.4,73.2s-33.2,87.6-114.8,87.6H4.2l53.2-68.8h202.4c19.6,0,28.4-5.6,28.4-19.6s-8.8-19.2-28.4-19.2H114.2c-68.8,0-100.4-30.8-100.4-76.8S47.4,29.6,128.6,29.6h232.4l-53.2,69.6H122.2c-19.2,0-28.4,4.8-28.4,18.4s9.2,18.8,28.4,18.8h145.6Z"/>
  <path class="st0" d="M713.4,29.6l-53.6,69.6h-95.6v198h-82.8V99.2h-125.6l53.6-69.6h304Z"/>
  <path class="st0" d="M1121.8,29.6l-158.8,179.2v88.4h-83.2v-88.8L716.6,29.6h106.4l64,74.4c8.4,9.6,30.8,34,36.4,42,5.2-7.6,14.4-19.2,33.6-42.4l60.8-74h104Z"/>
  <path class="st2" d="M1374.6,287.2l-164-147.2v157.2h-75.2V75.2c0-35.6,21.6-50,45.2-50s20,2.4,33.2,14.4l164,147.2V29.6h75.6v221.6c0,35.6-21.6,50.4-45.6,50.4s-20.4-2.4-33.2-14.4Z"/>
  <path class="st0" d="M1586.2,297.2h-82.8V29.6h82.8v267.6Z"/>
</svg>